<svg xmlns="http://www.w3.org/2000/svg" fill="none" viewBox="0 0 512 512" id="Snow-Flake--Streamline-Core.svg" height="512" width="512"><desc>Snow Flake Streamline Icon: https://streamlinehq.com</desc><g id="snow-flake--winter-freeze-snow-freezing-ice-cold-weather-snowflake"><path id="Union" fill="#8fbffa" fill-rule="evenodd" d="M202.24 8.045714285714284a27.428571428571427 27.428571428571427 0 1 0 -38.76571428571429 38.76571428571429l65.09714285714286 65.09714285714286v116.66285714285713H111.90857142857142L46.81142857142857 163.47428571428568A27.428571428571427 27.428571428571427 0 0 0 8.045714285714284 202.24L61.80571428571428 256 8.045714285714284 309.76a27.428571428571427 27.428571428571427 0 1 0 38.76571428571429 38.76571428571429l65.09714285714286 -65.09714285714286h116.66285714285713v116.66285714285713l-65.09714285714286 65.09714285714286a27.428571428571427 27.428571428571427 0 1 0 38.76571428571429 38.76571428571429L256 450.1942857142857l53.76 53.76a27.428571428571427 27.428571428571427 0 0 0 38.76571428571429 -38.76571428571429l-65.09714285714286 -65.09714285714286V283.4285714285714h116.66285714285713l65.09714285714286 65.09714285714286a27.428571428571427 27.428571428571427 0 1 0 38.76571428571429 -38.76571428571429L450.1942857142857 256l53.76 -53.76a27.428571428571427 27.428571428571427 0 0 0 -38.76571428571429 -38.76571428571429l-65.09714285714286 65.09714285714286H283.4285714285714V111.90857142857142l65.09714285714286 -65.09714285714286A27.428571428571427 27.428571428571427 0 0 0 309.76 8.045714285714284L256 61.80571428571428 202.24 8.045714285714284ZM108.61714285714285 108.61714285714285a27.428571428571427 27.428571428571427 0 0 1 38.76571428571429 0l36.57142857142857 36.57142857142857a27.428571428571427 27.428571428571427 0 0 1 -38.76571428571429 38.76571428571429l-36.57142857142857 -36.57142857142857a27.428571428571427 27.428571428571427 0 0 1 0 -38.76571428571429Zm75.33714285714285 258.1942857142857a27.428571428571427 27.428571428571427 0 1 0 -38.76571428571429 -38.76571428571429l-36.57142857142857 36.57142857142857a27.428571428571427 27.428571428571427 0 1 0 38.76571428571429 38.76571428571429l36.57142857142857 -36.57142857142857Zm219.42857142857142 -258.1942857142857a27.428571428571427 27.428571428571427 0 0 1 0 38.76571428571429l-36.57142857142857 36.57142857142857a27.428571428571427 27.428571428571427 0 1 1 -38.76571428571429 -38.76571428571429l36.57142857142857 -36.57142857142857a27.428571428571427 27.428571428571427 0 0 1 38.76571428571429 0Zm-36.57142857142857 219.42857142857142a27.428571428571427 27.428571428571427 0 1 0 -38.76571428571429 38.76571428571429l36.57142857142857 36.57142857142857a27.428571428571427 27.428571428571427 0 1 0 38.76571428571429 -38.76571428571429l-36.57142857142857 -36.57142857142857Z" clip-rule="evenodd" stroke-width="1"></path></g></svg>